<?xml version="1.0" encoding="UTF-8"?>
<svg version="1.1" xmlns="http://www.w3.org/2000/svg" width="1280" height="224">
<path d="M0 0 C0.88155762 -0.01620895 1.76311523 -0.03241791 2.67138672 -0.04911804 C10.81971205 -0.18955152 18.96912748 -0.26749406 27.11840057 -0.32803631 C32.59154206 -0.36897089 38.06288953 -0.42923865 43.53515625 -0.53710938 C48.82854579 -0.64110082 54.12033684 -0.6954798 59.41468811 -0.71549416 C61.42738395 -0.73138698 63.44002393 -0.76452677 65.45213318 -0.81564903 C82.0176583 -1.21624009 82.0176583 -1.21624009 86.91511536 2.45942688 C89.42347867 4.93769981 91.47154164 7.38679699 93.48632812 10.2722168 C94.37638375 11.30279582 95.27412309 12.32689245 96.18554688 13.33862305 C96.84167969 14.16233398 97.4978125 14.98604492 98.17382812 15.8347168 C98.83769531 16.66100586 99.5015625 17.48729492 100.18554688 18.33862305 C100.94480469 19.30670898 101.7040625 20.27479492 102.48632812 21.2722168 C103.05656739 21.79798278 103.62680666 22.32374876 104.2143259 22.86544704 C110.27437609 29.0784182 110.36694951 35.4985122 110.35726929 43.70349121 C110.33250163 45.50318294 110.30705806 47.30286547 110.28100586 49.10253906 C110.27902939 51.01517158 110.28014348 52.9278094 110.28410339 54.84043884 C110.28610624 60.01376409 110.24504321 65.18594592 110.19608569 70.35900617 C110.15223265 75.77215049 110.14820717 81.185323 110.13990784 86.59861755 C110.11817855 96.84086752 110.06077241 107.08259249 109.99046141 117.3246116 C109.91213377 128.98836931 109.87371023 140.6521525 109.83859336 152.31610787 C109.76548746 176.30183534 109.63715034 200.28684342 109.48632812 224.2722168 C90.67632812 224.2722168 71.86632812 224.2722168 52.48632812 224.2722168 C52.48632812 202.4922168 52.48632812 180.7122168 52.48632812 158.2722168 C42.25632812 158.2722168 32.02632812 158.2722168 21.48632812 158.2722168 C21.48632812 180.0522168 21.48632812 201.8322168 21.48632812 224.2722168 C2.67632812 224.2722168 -16.13367188 224.2722168 -35.51367188 224.2722168 C-35.69440946 199.29810526 -35.84171444 174.32452497 -35.92816925 149.34992504 C-35.96938251 137.75322711 -36.02554964 126.15696502 -36.1171875 114.56054688 C-36.19704109 104.45054508 -36.24856515 94.340859 -36.26637983 84.23055059 C-36.27679006 78.87932288 -36.30117486 73.52899819 -36.35951233 68.17806053 C-36.41403771 63.13566588 -36.43051967 58.09454135 -36.41853333 53.05187988 C-36.42072429 51.20682674 -36.43650601 49.36172872 -36.46731567 47.51693153 C-36.64881905 36.082841 -35.85703444 28.9013787 -27.51367188 20.2722168 C-26.60502216 19.20674565 -25.69727765 18.14050084 -24.79101562 17.07299805 C-24.01886719 16.25186523 -23.24671875 15.43073242 -22.45117188 14.5847168 C-18.83846194 10.70481106 -15.31963769 6.77443615 -11.88867188 2.7331543 C-8.64622377 -0.71194681 -4.40493061 0.06373132 0 0 Z M21.48632812 38.2722168 C21.48632812 65.3322168 21.48632812 92.3922168 21.48632812 120.2722168 C31.71632813 120.2722168 41.94632813 120.2722168 52.48632812 120.2722168 C52.48632812 93.2122168 52.48632812 66.1522168 52.48632812 38.2722168 C42.25632812 38.2722168 32.02632812 38.2722168 21.48632812 38.2722168 Z " fill="#000000" transform="translate(192.513671875,-0.272216796875)"/>
<path d="M0 0 C19.305 -0.144375 38.61 -0.28875 58.5 -0.4375 C64.58759766 -0.50122803 70.67519531 -0.56495605 76.94726562 -0.63061523 C84.40136719 -0.66223145 84.40136719 -0.66223145 87.89489746 -0.66810608 C90.32630385 -0.67883039 92.7576738 -0.70339932 95.18884277 -0.73902893 C98.87980451 -0.79040057 102.56849903 -0.79733832 106.25976562 -0.79467773 C107.33644753 -0.81986449 108.41312943 -0.84505125 109.52243805 -0.87100124 C116.21589682 -0.80657636 119.67188193 0.45741642 124.42508698 5.23271084 C124.94480827 5.81591626 125.46452957 6.39912169 126 7 C126.80308594 7.89203125 127.60617187 8.7840625 128.43359375 9.703125 C129.09488281 10.54359375 129.75617188 11.3840625 130.4375 12.25 C131.17871094 13.18199219 131.91992188 14.11398437 132.68359375 15.07421875 C133.44800781 16.03972656 134.21242188 17.00523438 135 18 C136.664038 20.02299843 138.33062396 22.04390425 140 24.0625 C144.02903861 28.93791651 145.12409185 30.95244678 145.14717102 37.31231689 C145.15084771 37.96724428 145.1545244 38.62217166 145.1583125 39.29694533 C145.16936627 41.50168233 145.17319603 43.70637223 145.17700195 45.91113281 C145.18326536 47.48788097 145.18991205 49.06462764 145.19691467 50.64137268 C145.21433653 54.93283742 145.22487981 59.22429101 145.2331202 63.51578236 C145.2382682 66.19633236 145.24434405 68.8768789 145.25063133 71.55742645 C145.26968734 79.94235966 145.2839172 88.32728403 145.2922433 96.71223474 C145.30201606 106.39458463 145.32833481 116.07670593 145.36874419 125.75897527 C145.39889673 133.24015347 145.41371138 140.72126612 145.41702431 148.20250392 C145.41937593 152.67184122 145.4283506 157.14093443 145.45348549 161.6102066 C145.47675603 165.81602626 145.48100367 170.02144094 145.47072411 174.22730827 C145.47022837 175.76963332 145.47655997 177.31197823 145.49028015 178.85424232 C145.50798968 180.96322885 145.50089956 183.07076053 145.48774719 185.17974854 C145.49013555 186.3588895 145.4925239 187.53803047 145.49498463 188.75290298 C144.53535006 195.04810162 139.85419809 199.5482579 135.8125 204.25 C135.33345215 204.80993652 134.8544043 205.36987305 134.36083984 205.94677734 C132.91163221 207.63503943 131.45625561 209.31781688 130 211 C128.74123047 212.46566406 128.74123047 212.46566406 127.45703125 213.9609375 C126.68746094 214.84007812 125.91789063 215.71921875 125.125 216.625 C124.44695312 217.40101563 123.76890625 218.17703125 123.0703125 218.9765625 C117.35163403 224.56576146 112.44720847 224.41797563 104.78393555 224.34057617 C103.63351933 224.34093778 102.48310312 224.34129938 101.29782581 224.34167194 C97.57727923 224.33943438 93.85718459 224.31659524 90.13671875 224.29296875 C87.8384218 224.28855743 85.54012185 224.28549718 83.24182129 224.28381348 C74.7236682 224.26809027 66.20557965 224.22620661 57.6875 224.1875 C38.650625 224.125625 19.61375 224.06375 0 224 C0 150.08 0 76.16 0 0 Z M57 38 C57 86.84 57 135.68 57 186 C67.23 186 77.46 186 88 186 C88 137.16 88 88.32 88 38 C77.77 38 67.54 38 57 38 Z " fill="#000000" transform="translate(677,0)"/>
<path d="M0 0 C18.81 0 37.62 0 57 0 C57 61.38 57 122.76 57 186 C67.23 186 77.46 186 88 186 C88 124.62 88 63.24 88 0 C107.14 0 126.28 0 146 0 C146.09029341 24.78241602 146.16397807 49.56469886 146.20724869 74.34723759 C146.22787398 85.8541916 146.25599407 97.36103616 146.30175781 108.86791992 C146.34162643 118.89730939 146.36743305 128.92661959 146.37635398 138.9560861 C146.38156865 144.26664667 146.39382457 149.57698045 146.42292023 154.88746834 C146.45008958 159.88692013 146.45844185 164.88605192 146.45243073 169.88557053 C146.45353027 171.71935071 146.46147506 173.5531417 146.4768219 175.38685799 C146.49677387 177.8940031 146.49192064 180.39994583 146.48101807 182.90711975 C146.49266943 183.62990099 146.5043208 184.35268222 146.51632524 185.09736592 C146.42810805 192.62140737 142.86521589 197.41197593 137.8125 202.75 C133.6937129 207.18770472 129.88482911 211.79816154 126.140625 216.5546875 C123.46141376 219.61524633 120.65433907 222.17283047 117 224 C114.24996637 224.10886538 111.5248716 224.1573264 108.77416992 224.16113281 C107.92359512 224.16609772 107.07302032 224.17106262 106.19667053 224.17617798 C103.37459512 224.19081757 100.55257594 224.19760491 97.73046875 224.203125 C95.77232359 224.20887538 93.81417845 224.21463313 91.85603333 224.22039795 C87.74606056 224.23091333 83.63610738 224.23675235 79.52612305 224.24023438 C74.26008814 224.2457174 68.99431203 224.26973909 63.72835827 224.29820633 C59.68173975 224.31683281 55.63518354 224.32203834 51.58852577 224.32357025 C49.64725646 224.32659775 47.70598827 224.33462956 45.76476097 224.34775543 C43.04764528 224.36481458 40.33116123 224.36293591 37.61401367 224.35644531 C36.81226715 224.3656601 36.01052063 224.37487488 35.18447876 224.3843689 C28.78174701 224.33646935 25.77944005 222.72590389 21.2734375 218.35546875 C20.29950475 217.30665667 19.33370817 216.25024664 18.375 215.1875 C17.86155029 214.62506592 17.34810059 214.06263184 16.8190918 213.4831543 C-0.16019556 194.63430174 -0.16019556 194.63430174 -0.12025452 184.47042847 C-0.12110894 183.68467756 -0.12196337 182.89892666 -0.12284368 182.08936512 C-0.12449789 179.44220369 -0.11897806 176.79510487 -0.11352539 174.14794922 C-0.11324348 172.25605267 -0.11340133 170.36415601 -0.1139679 168.47225952 C-0.11425572 163.3237723 -0.1083614 158.17530821 -0.10139394 153.02682638 C-0.09515791 147.65095225 -0.0945564 142.27507763 -0.09336853 136.89920044 C-0.09025595 126.71362971 -0.08204355 116.52806968 -0.07201904 106.34250367 C-0.06085563 94.74896709 -0.05534688 83.15543002 -0.05032361 71.56188941 C-0.03986088 47.70791898 -0.0215163 23.8539632 0 0 Z " fill="#000000" transform="translate(834,0)"/>
<path d="M0 0 C0.88535431 -0.01212021 1.77070862 -0.02424042 2.68289185 -0.03672791 C5.59934587 -0.06814228 8.51362306 -0.05563775 11.43017578 -0.03979492 C13.4651039 -0.04638037 15.50002734 -0.05459901 17.53494263 -0.06437683 C21.79700088 -0.07772316 26.05830625 -0.068899 30.3203125 -0.04492188 C35.77045456 -0.01636741 41.21843077 -0.04636811 46.66837883 -0.0935564 C50.87052237 -0.12281292 55.07215241 -0.11899829 59.27435684 -0.10553551 C61.28292656 -0.10338792 63.2915376 -0.11183654 65.3000145 -0.13126564 C82.95602196 -0.27314573 82.95602196 -0.27314573 88.1418457 4.17919922 C89.74040222 6.02845764 89.74040222 6.02845764 91.00048828 7.79223633 C91.80357422 8.68426758 92.60666016 9.57629883 93.43408203 10.49536133 C94.09537109 11.33583008 94.75666016 12.17629883 95.43798828 13.04223633 C96.17919922 13.97422852 96.92041016 14.9062207 97.68408203 15.86645508 C98.44849609 16.83196289 99.21291016 17.7974707 100.00048828 18.79223633 C101.66452628 20.81523476 103.33111224 22.83614058 105.00048828 24.85473633 C109.02667486 29.72670168 110.12609726 31.72191195 110.11401367 38.07788086 C110.1141597 38.72190857 110.11430573 39.36593628 110.11445618 40.02947998 C110.11375868 42.16137035 110.10597394 44.29317369 110.09814453 46.42504883 C110.09627977 47.90192619 110.09485614 49.37880417 110.09385681 50.85568237 C110.0900362 54.74535831 110.0802098 58.634997 110.06915283 62.5246582 C110.05713178 67.19025401 110.0525343 71.85586226 110.04669952 76.52146912 C110.03699781 83.61175078 110.01783808 90.70195066 110.00048828 97.79223633 C91.19048828 97.79223633 72.38048828 97.79223633 53.00048828 97.79223633 C53.00048828 78.32223633 53.00048828 58.85223633 53.00048828 38.79223633 C42.77048828 38.79223633 32.54048828 38.79223633 22.00048828 38.79223633 C22.00048828 87.63223633 22.00048828 136.47223633 22.00048828 186.79223633 C32.23048828 186.79223633 42.46048828 186.79223633 53.00048828 186.79223633 C53.00048828 166.99223633 53.00048828 147.19223633 53.00048828 126.79223633 C71.81048828 126.79223633 90.62048828 126.79223633 110.00048828 126.79223633 C110.16092352 143.02293451 110.16092352 143.02293451 110.19580078 149.96020508 C110.21967995 154.68743934 110.24787904 159.41436266 110.30224609 164.14135742 C110.3458198 167.95392634 110.36964952 171.76616165 110.37999725 175.57896042 C110.38736809 177.03100203 110.40176184 178.48302611 110.42340851 179.93492508 C110.45259804 181.97450966 110.45643815 184.01272922 110.45458984 186.05249023 C110.46347229 187.21164948 110.47235474 188.37080872 110.48150635 189.56509399 C109.54487914 195.8489106 104.84421828 200.35267185 100.81298828 205.04223633 C100.33394043 205.60217285 99.85489258 206.16210938 99.36132812 206.73901367 C97.91212049 208.42727576 96.45674389 210.11005321 95.00048828 211.79223633 C93.74171875 213.25790039 93.74171875 213.25790039 92.45751953 214.75317383 C91.68794922 215.63231445 90.91837891 216.51145508 90.12548828 217.41723633 C89.44744141 218.19325195 88.76939453 218.96926758 88.07080078 219.76879883 C83.21792118 224.51180191 79.07825782 225.2337997 72.44995117 225.19628906 C71.60054459 225.20315231 70.751138 225.21001556 69.87599182 225.21708679 C67.07487153 225.23535222 64.27431147 225.23151765 61.47314453 225.22583008 C59.52168089 225.23039205 57.57021885 225.23569767 55.61875916 225.24171448 C51.53084787 225.25064511 47.44313195 225.24822302 43.35522461 225.23828125 C38.12174239 225.2267925 32.88893499 225.24700196 27.65554142 225.27619839 C23.62600942 225.29456221 19.59663908 225.29426754 15.56707573 225.28856087 C13.63780203 225.28840767 11.70851737 225.29445064 9.77928352 225.30685234 C7.07923422 225.32176371 4.38043077 225.31108444 1.68041992 225.29394531 C0.88698181 225.30361328 0.0935437 225.31328125 -0.72393799 225.32324219 C-6.76167754 225.24316324 -10.33850809 223.38115859 -14.72998047 219.10864258 C-15.21080078 218.52985352 -15.69162109 217.95106445 -16.18701172 217.35473633 C-16.76451172 216.66766602 -17.34201172 215.9805957 -17.93701172 215.27270508 C-18.61763672 214.45415039 -19.29826172 213.6355957 -19.99951172 212.79223633 C-20.91462232 211.72449448 -21.83140507 210.65818435 -22.74951172 209.59301758 C-23.72896018 208.45133219 -24.70812646 207.30940465 -25.68701172 206.16723633 C-26.15067139 205.6291333 -26.61433105 205.09103027 -27.09204102 204.53662109 C-27.53974854 204.0099585 -27.98745605 203.4832959 -28.44873047 202.94067383 C-28.84406982 202.47838379 -29.23940918 202.01609375 -29.64672852 201.53979492 C-33.50227454 196.5591058 -35.49798072 193.37324326 -35.53436279 186.94989014 C-35.54342502 186.28620021 -35.55248724 185.62251029 -35.56182408 184.93870854 C-35.58702614 182.72781275 -35.5838776 180.51790775 -35.58056641 178.30688477 C-35.59254267 176.71632123 -35.60615509 175.12576929 -35.62127686 173.53523254 C-35.6565581 169.22300804 -35.66598598 164.91110119 -35.66854 160.5987463 C-35.67138698 157.90136111 -35.67993365 155.20405619 -35.69052887 152.50669098 C-35.72751925 143.08700959 -35.74387175 133.66755435 -35.74072266 124.24780273 C-35.73832125 115.48265018 -35.78049805 106.71848373 -35.84369731 97.95358062 C-35.89609877 90.41616386 -35.91745408 82.87906836 -35.91490102 75.34147096 C-35.91388376 70.84498803 -35.92513543 66.34938139 -35.96761322 61.85308075 C-36.00650869 57.62050198 -36.006544 53.38962914 -35.97754669 49.15698814 C-35.97338367 47.60987781 -35.98269499 46.06265891 -36.00698853 44.51573372 C-36.13797431 35.59199455 -35.3767536 29.5290438 -29.02739334 22.79097366 C-28.35819241 22.13139034 -27.68899147 21.47180702 -26.99951172 20.79223633 C-25.92167882 19.52692788 -24.85388821 18.25286353 -23.80419922 16.96411133 C-22.82932536 15.82204274 -21.8528031 14.68137885 -20.87451172 13.54223633 C-20.38853516 12.96989258 -19.90255859 12.39754883 -19.40185547 11.80786133 C-18.67289063 10.95708008 -18.67289063 10.95708008 -17.92919922 10.08911133 C-17.50880371 9.59765625 -17.0884082 9.10620117 -16.65527344 8.59985352 C-16.10887207 8.00333984 -15.5624707 7.40682617 -14.99951172 6.79223633 C-13.74170898 5.27582298 -13.74170898 5.27582298 -12.45849609 3.72877502 C-8.62040614 -0.07021869 -5.20709613 -0.06665022 0 0 Z " fill="#000000" transform="translate(34.99951171875,-0.792236328125)"/>
<path d="M0 0 C17.49 0 34.98 0 53 0 C52.95617188 5.86394531 52.91234375 11.72789063 52.8671875 17.76953125 C52.86169131 21.50212822 52.85915503 25.23426419 52.8671875 28.96679688 C52.87963662 34.8813293 52.8815985 40.79446956 52.81835938 46.70874023 C52.76801387 51.48160513 52.76699698 56.25224625 52.79904556 61.02524376 C52.80277398 62.8387808 52.78923622 64.65244455 52.75750351 66.46570778 C52.54484127 79.03660165 52.54484127 79.03660165 58.88720703 89.4519043 C60.5762312 90.98489711 62.27890531 92.50310232 64 94 C64.49732635 94.75380447 64.99465271 95.50760895 65.50704956 96.28425598 C66.89381241 98.2017043 66.89381241 98.2017043 69.29840088 98.61038208 C75.32053474 97.24977955 79.53414306 91.14312501 82.83634949 86.20742035 C86.36013074 79.52288203 85.56232547 71.59281056 85.390625 64.2578125 C85.39068147 62.39451363 85.39604542 60.53120815 85.40643311 58.66793823 C85.41950363 53.81041339 85.36145389 48.95636308 85.28753662 44.0994873 C85.21368645 38.24743132 85.23000239 32.39498709 85.23085022 26.54255676 C85.22221378 17.69286429 85.10053865 8.85126778 85 0 C102.82 0 120.64 0 139 0 C139.16043524 24.71593962 139.16043524 24.71593962 139.1953125 35.25390625 C139.21922096 42.44364229 139.24750052 49.6331745 139.30175781 56.82275391 C139.34522898 62.61937061 139.36914013 68.41576872 139.37950897 74.21253586 C139.38689798 76.4237347 139.40132696 78.63492162 139.42292023 80.84602737 C139.4519704 83.944001 139.45595523 87.04107217 139.45410156 90.13916016 C139.47567322 91.50941345 139.47567322 91.50941345 139.49768066 92.90734863 C139.46167969 98.47028976 138.66521689 101.56398621 135 106 C134.18144531 107.00417969 133.36289063 108.00835937 132.51953125 109.04296875 C131.62009294 110.09364005 130.71763717 111.14173418 129.8125 112.1875 C128.82868068 113.33660096 127.84561829 114.48635037 126.86328125 115.63671875 C126.1355249 116.4882251 126.1355249 116.4882251 125.39306641 117.35693359 C123.396426 119.71189152 121.44701662 122.1039417 119.5 124.5 C115.63558268 129.25030361 111.69410098 133.93011966 107.71679688 138.5859375 C106.4696703 140.05035261 105.23437512 141.52482056 104 143 C103.46477219 143.56358215 102.92954437 144.12716431 102.37809753 144.70782471 C100.45404169 147.90808678 100.56024884 150.89467969 100.56762695 154.52246094 C100.55233948 155.6498745 100.55233948 155.6498745 100.53674316 156.80006409 C100.50660876 159.27824351 100.49734677 161.75603642 100.48828125 164.234375 C100.47143485 165.95503016 100.45328466 167.67567301 100.43388367 169.39630127 C100.38637312 173.92047275 100.35657064 178.44459433 100.33044434 182.96893311 C100.29540278 188.39977878 100.23838704 193.83043276 100.18505096 199.26112366 C100.10652463 207.50739157 100.05592871 215.75340835 100 224 C79.87 224 59.74 224 39 224 C39.07863281 218.61558594 39.15726563 213.23117188 39.23828125 207.68359375 C39.25913795 204.24254385 39.27610266 200.80232979 39.27929688 197.36132812 C39.28471457 191.91623068 39.30339061 186.47375514 39.40795898 181.02954102 C40.92589316 158.99103065 40.92589316 158.99103065 33.44963074 139.18263245 C30.81634282 136.46495798 28.03677464 134.26255321 25 132 C22.72851562 129.37353516 22.72851562 129.37353516 21.0625 127.125 C18.58679083 123.97458039 16.06894354 120.86624163 13.5078125 117.78515625 C12.8799585 117.02895996 12.25210449 116.27276367 11.60522461 115.49365234 C10.35088558 113.98525178 9.09398713 112.47897495 7.83422852 110.97509766 C7.25342529 110.27562012 6.67262207 109.57614258 6.07421875 108.85546875 C5.55432373 108.23309326 5.03442871 107.61071777 4.4987793 106.96948242 C4.00418213 106.31955322 3.50958496 105.66962402 3 105 C2.48111206 104.33541779 1.96222412 103.67083557 1.4276123 102.9861145 C-0.61224502 98.71937659 -0.3955117 94.92374433 -0.34057617 90.25268555 C-0.34101425 89.27659836 -0.34145233 88.30051117 -0.34190369 87.29484558 C-0.33981716 84.07526503 -0.31649204 80.85620811 -0.29296875 77.63671875 C-0.28737233 75.4018431 -0.28310245 73.16696377 -0.28010559 70.93208313 C-0.26866054 65.05477711 -0.23919602 59.17769409 -0.20599365 53.30047607 C-0.16988494 46.2461686 -0.15613002 39.1917865 -0.13863373 32.13741302 C-0.10955875 21.424787 -0.05206869 10.71265012 0 0 Z " fill="#000000" transform="translate(1123,0)"/>
<path d="M0 0 C20.79 0 41.58 0 63 0 C63 59.73 63 119.46 63 181 C77.19 181 91.38 181 106 181 C106 195.19 106 209.38 106 224 C71.02 224 36.04 224 0 224 C0 150.08 0 76.16 0 0 Z " fill="#000000" transform="translate(429,0)"/>
<path d="M0 0 C40.26 0 80.52 0 122 0 C122 15.18 122 30.36 122 46 C111.11 46 100.22 46 89 46 C89 104.74 89 163.48 89 224 C70.19 224 51.38 224 32 224 C32 165.26 32 106.52 32 46 C21.44 46 10.88 46 0 46 C0 30.82 0 15.64 0 0 Z " fill="#000000" transform="translate(991,0)"/>
<path d="M0 0 C20.46 0 40.92 0 62 0 C62 59.73 62 119.46 62 181 C76.19 181 90.38 181 105 181 C105 195.19 105 209.38 105 224 C70.35 224 35.7 224 0 224 C0 150.08 0 76.16 0 0 Z " fill="#000000" transform="translate(314,0)"/>
<path d="M0 0 C0.90854736 -0.03858124 1.81709473 -0.07716248 2.75317383 -0.11691284 C6.93505816 -0.23274895 11.11625172 -0.3310716 15.29931641 -0.39257812 C17.49754946 -0.43560461 19.69544594 -0.50365941 21.89208984 -0.59765625 C25.072831 -0.73248628 28.24648298 -0.78668208 31.4296875 -0.82470703 C32.39986816 -0.88036835 33.37004883 -0.93602966 34.36962891 -0.99337769 C39.04595352 -0.96558805 41.71722199 -0.25900162 45.49487305 2.58056641 C51.9698712 9.32312646 53.90070617 15.40504256 53.90405273 24.70184326 C53.87288385 26.22688849 53.83971417 27.75189396 53.8046875 29.27685547 C53.80125613 30.87721393 53.80140595 32.47758363 53.80493164 34.07794189 C53.80164679 37.41049699 53.764662 40.74032536 53.70117188 44.07226562 C53.62155004 48.32519447 53.61312136 52.57458759 53.62809753 56.82812119 C53.634258 60.12455172 53.60992821 63.42019923 53.57583618 66.71643829 C53.5618657 68.28394915 53.55551617 69.8515486 53.55722046 71.41912079 C53.53287232 86.14207526 53.53287232 86.14207526 48.18969727 91.85089111 C47.67076904 92.3678656 47.15184082 92.88484009 46.6171875 93.41748047 C46.11952881 94.12346375 45.62187012 94.82944702 45.10913086 95.55682373 C43.6171875 97.41748047 43.6171875 97.41748047 40.6171875 98.41748047 C39.21147995 98.51307203 37.80175786 98.55553689 36.39282227 98.56274414 C35.54506729 98.56912399 34.69731232 98.57550385 33.8238678 98.58207703 C32.91132736 98.58318985 31.99878693 98.58430267 31.05859375 98.58544922 C30.11789536 98.58877762 29.17719696 98.59210602 28.20799255 98.59553528 C26.2183379 98.60059812 24.22867476 98.6029438 22.23901367 98.6027832 C19.19500752 98.60496947 16.15136389 98.62313138 13.10742188 98.64208984 C11.17448041 98.64502393 9.24153722 98.64700862 7.30859375 98.64794922 C6.39807755 98.65513474 5.48756134 98.66232025 4.54945374 98.66972351 C3.6985466 98.66664688 2.84763947 98.66357025 1.97094727 98.66040039 C1.22498795 98.66182541 0.47902863 98.66325043 -0.28953552 98.66471863 C-5.11142242 98.09520277 -7.5880749 95.51083139 -10.56640625 91.83569336 C-15.72747893 84.45930116 -15.54906277 77.34529422 -15.4453125 68.72607422 C-15.45071596 67.12906452 -15.45849208 65.53206129 -15.46850586 63.93507385 C-15.48023052 60.6054046 -15.46339044 57.27746449 -15.42578125 53.94799805 C-15.38015661 49.70490643 -15.40650083 45.46585892 -15.45436096 41.2229147 C-15.4834301 37.93071133 -15.4739985 34.63944916 -15.45333862 31.34721565 C-15.44804758 29.78409391 -15.45438914 28.22088333 -15.47317505 26.65786552 C-15.55907543 17.506516 -14.87064837 11.22262582 -8.29077148 4.21815491 C-7.66114502 3.62393234 -7.03151855 3.02970978 -6.3828125 2.41748047 C-3.97411145 0.00877942 -3.30360705 0.13106846 0 0 Z M11.6171875 22.41748047 C11.6171875 40.23748047 11.6171875 58.05748047 11.6171875 76.41748047 C16.5671875 76.41748047 21.5171875 76.41748047 26.6171875 76.41748047 C26.6171875 58.59748047 26.6171875 40.77748047 26.6171875 22.41748047 C21.6671875 22.41748047 16.7171875 22.41748047 11.6171875 22.41748047 Z " fill="#000000" transform="translate(533.3828125,43.58251953125)"/>
<path d="M0 0 C18.81 0 37.62 0 57 0 C57 7.59 57 15.18 57 23 C46.77 23 36.54 23 26 23 C26 29.27 26 35.54 26 42 C34.91 42 43.82 42 53 42 C53 49.92 53 57.84 53 66 C44.09 66 35.18 66 26 66 C26 76.56 26 87.12 26 98 C17.42 98 8.84 98 0 98 C0 65.66 0 33.32 0 0 Z " fill="#000000" transform="translate(595,44)"/>
<path d="M0 0 C5.40298384 5.13283465 8.64429397 8.85120766 8.875 16.5 C8.81322702 22.71161602 7.92403682 26.89580062 3.5 31.375 C-1.84510028 35.37505316 -6.87097014 36.80969048 -13.5 36.375 C-20.02155721 35.00270321 -23.86808111 31.90027988 -27.5 26.375 C-30.19048684 21.11100401 -29.70930705 16.0184329 -28.5 10.375 C-26.77495382 5.2688633 -23.65009416 1.90364153 -18.98046875 -0.7421875 C-12.74036251 -2.96307571 -5.97098158 -2.77224145 0 0 Z M-21.3125 6.75 C-24.68684317 10.79921181 -25.7268227 13.57838931 -25.4375 18.8125 C-24.73162359 23.745427 -23.13154544 25.98555759 -19.5 29.375 C-15.12561111 32.45695581 -11.8094123 32.75235748 -6.6796875 31.94921875 C-2.28317246 30.79099705 0.54505896 28.59337305 3.3125 25.0625 C5.40811333 20.31979616 5.91099497 16.83916959 4.5 11.8125 C1.370912 6.43438 -1.99160098 3.13647828 -8 1.3125 C-13.56437245 1.41186379 -17.09704542 3.1902828 -21.3125 6.75 Z " fill="#000000" transform="translate(1271.5,187.625)"/>
<path d="M0 0 C5.28 0 10.56 0 16 0 C18.17766075 4.35532149 18.03039555 5.46625958 17 10 C16.34 10 15.68 10 15 10 C15.99 12.97 16.98 15.94 18 19 C16.35 19 14.7 19 13 19 C12.62875 18.030625 12.2575 17.06125 11.875 16.0625 C10.28947638 12.68859031 10.28947638 12.68859031 6.8125 12.125 C5.884375 12.08375 4.95625 12.0425 4 12 C4 14.31 4 16.62 4 19 C2.68 19 1.36 19 0 19 C0 12.73 0 6.46 0 0 Z M4 4 C4 5.32 4 6.64 4 8 C6.97 8 9.94 8 13 8 C13 6.68 13 5.36 13 4 C10.03 4 7.06 4 4 4 Z " fill="#000000" transform="translate(1253,195)"/>
</svg>
