<?xml version="1.0" encoding="UTF-8"?>
<svg version="1.1" xmlns="http://www.w3.org/2000/svg" width="250" height="250">
<path d="M0 0 C2.03953999 0.03540868 4.06298369 -0.02003465 6.1015625 -0.08374023 C8.050625 -0.07310547 8.050625 -0.07310547 10.0390625 -0.06225586 C11.8025 -0.05657593 11.8025 -0.05657593 13.6015625 -0.05078125 C18.07471837 1.44397716 19.98674853 3.45327818 22.6802063 7.26951599 C25.28399712 12.6891633 24.89103828 18.20163007 24.72265625 24.10180664 C24.71275162 25.42083481 24.70284698 26.73986298 24.69264221 28.09886169 C24.66613227 31.57674978 24.59757035 35.05253515 24.51971436 38.52960205 C24.44762741 42.08918827 24.41603489 45.64912009 24.38085938 49.20922852 C24.30617176 56.17306108 24.1832284 63.13516279 24.0390625 70.09790039 C18.0990625 70.09790039 12.1590625 70.09790039 6.0390625 70.09790039 C6.0390625 63.49790039 6.0390625 56.89790039 6.0390625 50.09790039 C3.3990625 50.09790039 0.7590625 50.09790039 -1.9609375 50.09790039 C-1.9609375 56.69790039 -1.9609375 63.29790039 -1.9609375 70.09790039 C-7.9009375 70.09790039 -13.8409375 70.09790039 -19.9609375 70.09790039 C-20.1195695 62.28274684 -20.24778094 54.46848492 -20.3236227 46.65216064 C-20.36003816 43.02197089 -20.40936456 39.39294671 -20.48901367 35.76342773 C-20.56550573 32.25551034 -20.60701556 28.74870822 -20.6250782 25.24002075 C-20.64416187 23.26120159 -20.69874035 21.28282662 -20.75401306 19.3046875 C-20.75658262 13.37229444 -20.63609097 9.04491987 -16.85571289 4.28369141 C-11.82227468 -0.49234035 -6.65890574 -0.14702941 0 0 Z M-1.9609375 14.09790039 C-1.9609375 21.68790039 -1.9609375 29.27790039 -1.9609375 37.09790039 C0.6790625 37.09790039 3.3190625 37.09790039 6.0390625 37.09790039 C6.0390625 29.50790039 6.0390625 21.91790039 6.0390625 14.09790039 C3.3990625 14.09790039 0.7590625 14.09790039 -1.9609375 14.09790039 Z " fill="#000000" transform="translate(79.9609375,48.902099609375)"/>
<path d="M0 0 C5.960625 -0.165 11.92125 -0.33 18.0625 -0.5 C20.86439819 -0.60924805 20.86439819 -0.60924805 23.72290039 -0.72070312 C25.22277242 -0.74409294 26.72269568 -0.76447286 28.22265625 -0.78125 C28.98574097 -0.82217773 29.74882568 -0.86310547 30.53503418 -0.90527344 C35.16462064 -0.91123844 37.66393073 0.03846846 40.99047852 3.32250977 C44.95082069 8.46895041 45.01512962 13.31352824 44.9296875 19.62109375 C44.93973312 21.27009422 44.93973312 21.27009422 44.94998169 22.95240784 C44.95472649 25.26786111 44.94193959 27.58340943 44.91259766 29.89868164 C44.87513453 33.4248373 44.91226494 36.94474124 44.95703125 40.47070312 C44.95240456 42.72918032 44.94343383 44.98765365 44.9296875 47.24609375 C44.94385712 48.29010849 44.95802673 49.33412323 44.97262573 50.40977478 C44.82607629 57.01530214 43.50049338 61.34485774 39.0690918 66.34971619 C35.56996614 69.14057856 32.56320835 69.14081044 28.22265625 68.87890625 C27.50235229 68.86984253 26.78204834 68.86077881 26.03991699 68.85144043 C23.37944374 68.80476546 20.72082644 68.67910634 18.0625 68.5625 C12.101875 68.376875 6.14125 68.19125 0 68 C0 45.56 0 23.12 0 0 Z M17 12 C17 26.52 17 41.04 17 56 C19.97 56 22.94 56 26 56 C26 41.48 26 26.96 26 12 C23.03 12 20.06 12 17 12 Z " fill="#000000" transform="translate(60,125)"/>
<path d="M0 0 C5.94 0 11.88 0 18 0 C18 18.48 18 36.96 18 56 C20.64 56 23.28 56 26 56 C26 37.52 26 19.04 26 0 C31.94 0 37.88 0 44 0 C44.15864417 7.68465392 44.28685202 15.36869113 44.3626852 23.05458832 C44.39909729 26.62425452 44.44841685 30.19273495 44.52807617 33.76171875 C44.60458125 37.21128339 44.64608058 40.65971362 44.6641407 44.11006165 C44.68322011 46.05564852 44.7377966 48.00078372 44.79307556 49.94567871 C44.79566768 55.83201224 44.64357033 60.07961037 40.89477539 64.80053711 C35.86270855 69.59089034 30.70653901 69.24511904 24.0390625 69.09790039 C21.99952251 69.06249171 19.97607881 69.11793504 17.9375 69.18164062 C16.638125 69.17455078 15.33875 69.16746094 14 69.16015625 C12.2365625 69.15447632 12.2365625 69.15447632 10.4375 69.14868164 C5.96190112 67.65310687 4.0534125 65.63237425 1.3588562 61.81495667 C-1.22539429 56.46151814 -0.8530023 51.04842406 -0.68359375 45.21484375 C-0.67368912 43.91801163 -0.66378448 42.6211795 -0.65357971 41.28504944 C-0.62707468 37.86632769 -0.55851785 34.44974639 -0.48065186 31.03186035 C-0.40855372 27.53260241 -0.37697008 24.03299251 -0.34179688 20.53320312 C-0.26711808 13.68784345 -0.14417944 6.84424539 0 0 Z " fill="#000000" transform="translate(107,125)"/>
<path d="M0 0 C1.99600626 -0.04166374 3.99050391 -0.14214157 5.984375 -0.2434082 C15.22293829 -0.38834518 15.22293829 -0.38834518 19.59472656 2.30859375 C23.50914546 6.1982763 25.32161747 9.5951532 25.6796875 15.11791992 C25.62733933 16.98282361 25.53310711 18.84699228 25.3984375 20.70776367 C25.36234375 21.66875977 25.32625 22.62975586 25.2890625 23.61987305 C25.19578654 25.96343154 25.0523242 28.30490351 24.8984375 30.64526367 C18.9584375 30.64526367 13.0184375 30.64526367 6.8984375 30.64526367 C6.8984375 25.03526367 6.8984375 19.42526367 6.8984375 13.64526367 C3.9284375 13.64526367 0.9584375 13.64526367 -2.1015625 13.64526367 C-2.1015625 27.83526367 -2.1015625 42.02526367 -2.1015625 56.64526367 C0.8684375 56.64526367 3.8384375 56.64526367 6.8984375 56.64526367 C6.8984375 50.70526367 6.8984375 44.76526367 6.8984375 38.64526367 C12.8384375 38.64526367 18.7784375 38.64526367 24.8984375 38.64526367 C26.10435221 59.60520982 26.10435221 59.60520982 21.4609375 65.39526367 C19.52734375 67.31713867 19.52734375 67.31713867 17.8984375 68.64526367 C17.5684375 68.97526367 17.2384375 69.30526367 16.8984375 69.64526367 C12.32291341 69.98409607 7.73488672 69.97041096 3.1484375 70.02026367 C1.21484375 70.07633789 1.21484375 70.07633789 -0.7578125 70.13354492 C-2.00046875 70.14514648 -3.243125 70.15674805 -4.5234375 70.16870117 C-5.66393555 70.18852051 -6.80443359 70.20833984 -7.97949219 70.22875977 C-12.10822119 69.45712524 -13.4281044 67.82271606 -16.1015625 64.64526367 C-16.85228027 63.94248291 -17.60299805 63.23970215 -18.37646484 62.515625 C-21.04179112 58.08083289 -20.71220018 53.80225914 -20.703125 48.71948242 C-20.71169525 47.65792435 -20.7202655 46.59636627 -20.72909546 45.50263977 C-20.74056699 43.2592758 -20.74159357 41.01583744 -20.73291016 38.77246094 C-20.72660244 35.35440775 -20.7734705 31.93984036 -20.82421875 28.5222168 C-20.82876652 26.33797635 -20.8301709 24.15372664 -20.828125 21.96948242 C-20.84654449 20.95464279 -20.86496399 19.93980316 -20.88394165 18.89421082 C-20.70109428 4.7409815 -13.01341848 0.19463162 0 0 Z " fill="#000000" transform="translate(32.1015625,49.354736328125)"/>
<path d="M0 0 C5.61 0 11.22 0 17 0 C17.03738281 1.84207031 17.07476562 3.68414062 17.11328125 5.58203125 C17.1789281 7.9922083 17.24537587 10.40236364 17.3125 12.8125 C17.33505859 14.02744141 17.35761719 15.24238281 17.38085938 16.49414062 C17.4340332 18.23920898 17.4340332 18.23920898 17.48828125 20.01953125 C17.51446533 21.09307861 17.54064941 22.16662598 17.56762695 23.27270508 C18.04245474 26.26779328 18.63447068 27.1852342 21 29 C23.36552932 27.1852342 23.95754526 26.26779328 24.43237305 23.27270508 C24.45855713 22.19915771 24.48474121 21.12561035 24.51171875 20.01953125 C24.54716797 18.85615234 24.58261719 17.69277344 24.61914062 16.49414062 C24.64169922 15.27919922 24.66425781 14.06425781 24.6875 12.8125 C24.72166016 11.58595703 24.75582031 10.35941406 24.79101562 9.09570312 C24.87358776 6.06412623 24.9384673 3.03207691 25 0 C30.61 0 36.22 0 42 0 C42.23218793 4.34449415 42.43003095 8.66688739 42.54931641 13.01269531 C42.59907064 14.48349464 42.66691249 15.95381343 42.75439453 17.42285156 C43.54195601 31.00597071 43.54195601 31.00597071 38.43267822 36.78894043 C37.04909358 38.23139717 35.66444618 39.67283429 34.27978516 41.11425781 C30.43786849 45.97733931 30.66805545 50.7633899 30.875 56.75 C30.87242187 57.84054688 30.86984375 58.93109375 30.8671875 60.0546875 C30.8671875 62.70349499 30.92716392 65.35219412 31 68 C24.4 68 17.8 68 11 68 C11.04382813 66.40671875 11.08765625 64.8134375 11.1328125 63.171875 C11.1328125 61.03124842 11.13006057 58.8906206 11.125 56.75 C11.16109375 55.70585937 11.1971875 54.66171875 11.234375 53.5859375 C11.14769606 46.5649432 9.86235507 43.34421249 4.96875 38.25 C-0.11180291 32.95326748 -1.03099174 28.80457419 -0.95333862 21.70477295 C-0.87820259 19.55013388 -0.75315696 17.40206968 -0.625 15.25 C-0.57470359 13.76317311 -0.52910023 12.27617976 -0.48828125 10.7890625 C-0.3879483 7.18510311 -0.19265667 3.60482031 0 0 Z " fill="#000000" transform="translate(194,125)"/>
<path d="M0 0 C6.6 0 13.2 0 20 0 C20 18.15 20 36.3 20 55 C24.29 55 28.58 55 33 55 C33 59.62 33 64.24 33 69 C22.11 69 11.22 69 0 69 C0 46.23 0 23.46 0 0 Z " fill="#000000" transform="translate(141,50)"/>
<path d="M0 0 C6.27 0 12.54 0 19 0 C19 18.15 19 36.3 19 55 C23.29 55 27.58 55 32 55 C32 59.62 32 64.24 32 69 C21.44 69 10.88 69 0 69 C0 46.23 0 23.46 0 0 Z " fill="#000000" transform="translate(107,50)"/>
<path d="M0 0 C12.21 0 24.42 0 37 0 C37 4.62 37 9.24 37 14 C34.03 14 31.06 14 28 14 C28 31.82 28 49.64 28 68 C22.06 68 16.12 68 10 68 C10 50.18 10 32.36 10 14 C6.7 14 3.4 14 0 14 C0 9.38 0 4.76 0 0 Z " fill="#000000" transform="translate(154,125)"/>
<path d="M0 0 C1.09924805 -0.01740234 1.09924805 -0.01740234 2.22070312 -0.03515625 C4.34765625 -0.0234375 4.34765625 -0.0234375 7.9375 0.375 C10.1755858 3.7321287 10.19400054 4.88637364 10.203125 8.8125 C10.20699219 10.40191406 10.20699219 10.40191406 10.2109375 12.0234375 C10.20320313 13.12945312 10.19546875 14.23546875 10.1875 15.375 C10.19523437 16.48101562 10.20296875 17.58703125 10.2109375 18.7265625 C10.20835938 19.78617188 10.20578125 20.84578125 10.203125 21.9375 C10.20086914 22.90816406 10.19861328 23.87882812 10.19628906 24.87890625 C9.9375 27.375 9.9375 27.375 7.9375 30.375 C5.19432667 30.70632997 2.74105321 30.83901854 0 30.8125 C-0.72896484 30.83248047 -1.45792969 30.85246094 -2.20898438 30.87304688 C-7.56674168 30.86813601 -7.56674168 30.86813601 -9.77026367 28.67626953 C-11.31307301 25.92876891 -11.44943816 24.19709186 -11.4609375 21.05859375 C-11.46480469 20.04732422 -11.46867188 19.03605469 -11.47265625 17.99414062 C-11.46105469 16.94419922 -11.44945312 15.89425781 -11.4375 14.8125 C-11.44910156 13.75869141 -11.46070313 12.70488281 -11.47265625 11.61914062 C-11.46878906 10.60916016 -11.46492187 9.59917969 -11.4609375 8.55859375 C-11.45755371 7.63618896 -11.45416992 6.71378418 -11.45068359 5.76342773 C-11.0625 3.375 -11.0625 3.375 -9.77026367 1.57592773 C-6.83951329 -0.48502453 -3.4485284 -0.05488374 0 0 Z M-2.0625 7.375 C-2.0625 12.655 -2.0625 17.935 -2.0625 23.375 C-1.0725 23.375 -0.0825 23.375 0.9375 23.375 C0.9375 18.095 0.9375 12.815 0.9375 7.375 C-0.0525 7.375 -1.0425 7.375 -2.0625 7.375 Z " fill="#000000" transform="translate(23.0625,124.625)"/>
<path d="M0 0 C5.94 0 11.88 0 18 0 C18 2.31 18 4.62 18 7 C15.03 7 12.06 7 9 7 C9 8.98 9 10.96 9 13 C11.64 13 14.28 13 17 13 C17 15.31 17 17.62 17 20 C14.36 20 11.72 20 9 20 C9 23.3 9 26.6 9 30 C6.03 30 3.06 30 0 30 C0 20.1 0 10.2 0 0 Z " fill="#000000" transform="translate(35,125)"/>
<path d="M0 0 C1.9375 1.125 1.9375 1.125 3 3 C3.49573337 6.89504791 3.58016848 9.09493717 1.4375 12.4375 C-1.96719488 14.61999672 -4.03430012 14.63734462 -8 14 C-10.5 11.9375 -10.5 11.9375 -12 9 C-12 5.19715329 -11.7968187 2.98069994 -9.375 0 C-5.91616747 -1.45635054 -3.58701629 -0.91305869 0 0 Z M-6 1 C-6.66 1.66 -7.32 2.32 -8 3 C-5.69 3 -3.38 3 -1 3 C-1.66 2.34 -2.32 1.68 -3 1 C-3.99 1 -4.98 1 -6 1 Z M-9 3 C-9.67958603 5.39719432 -9.67958603 5.39719432 -10 8 C-9.34 8.66 -8.68 9.32 -8 10 C-8 7.69 -8 5.38 -8 3 C-8.33 3 -8.66 3 -9 3 Z M-1 3 C-1 4.98 -1 6.96 -1 9 C-0.34 9 0.32 9 1 9 C1 7.35 1 5.7 1 4 C0.34 3.67 -0.32 3.34 -1 3 Z M-6 8 C-6 8.66 -6 9.32 -6 10 C-6.99 10.495 -6.99 10.495 -8 11 C-6.93354885 12.29633621 -6.93354885 12.29633621 -4.4375 12.0625 C-3.633125 12.041875 -2.82875 12.02125 -2 12 C-1.67 11.34 -1.34 10.68 -1 10 C-3.475 9.01 -3.475 9.01 -6 8 Z " fill="#000000" transform="translate(243,179)"/>
</svg>
